<svg id="logo" xmlns="http://www.w3.org/2000/svg" width="135.375" height="20" viewBox="0 0 135.375 20">
  <defs>
    <style>
      .cls-1 {
        fill: #212529;
      }

      .cls-1, .cls-2, .cls-3 {
        fill-rule: evenodd;
      }

      .cls-2 {
        fill: #1b4a8a;
      }

      .cls-3 {
        fill: #fff;
      }
    </style>
  </defs>
  <path id="testtask" class="cls-1" d="M73.2,26.217h3.359v-1.6H67.975v1.6h3.359v9.82H73.2v-9.82Zm14.716,8.234H83.324V30.866h4.3V29.3h-4.3V26.194h4.594V24.616H81.457V36.038h6.461V34.452Zm12.052-2.859a2.874,2.874,0,0,0-.859-1.023,8.469,8.469,0,0,0-1.844-.977,10.424,10.424,0,0,1-1.547-.742,1.915,1.915,0,0,1-.617-0.6,1.468,1.468,0,0,1-.187-0.762,1.3,1.3,0,0,1,.469-1.043,2.087,2.087,0,0,1,1.375-.395,7.136,7.136,0,0,1,2.719.641l0.594-1.523a8.014,8.014,0,0,0-3.266-.719,4.213,4.213,0,0,0-2.727.82,2.735,2.735,0,0,0-1.016,2.25,3.058,3.058,0,0,0,.641,1.953,5.29,5.29,0,0,0,2.2,1.445,7.291,7.291,0,0,1,2,1.055,1.42,1.42,0,0,1,.484,1.086,1.375,1.375,0,0,1-.527,1.133,2.6,2.6,0,0,1-1.637.422A7.035,7.035,0,0,1,94.59,34.4a8.613,8.613,0,0,1-1.66-.578v1.766a7.249,7.249,0,0,0,3.172.6,4.8,4.8,0,0,0,3.039-.867,2.874,2.874,0,0,0,1.1-2.391A3.083,3.083,0,0,0,99.969,31.592Zm9.833-5.375h3.359v-1.6h-8.586v1.6h3.36v9.82H109.8v-9.82Zm12.2,0h3.359v-1.6h-8.586v1.6h3.36v9.82H122v-9.82Zm17.325,9.82-4.274-11.469h-2.031l-4.273,11.469h1.968l1.118-3.172H136.2l1.14,3.172h1.985Zm-6.945-4.781,1.031-2.977a17.539,17.539,0,0,0,.617-2.1q0.078,0.313.285,0.984t0.324,0.984l1.071,3.109h-3.328Zm18.387,0.336a2.875,2.875,0,0,0-.859-1.023,8.494,8.494,0,0,0-1.844-.977,10.4,10.4,0,0,1-1.547-.742,1.919,1.919,0,0,1-.617-0.6,1.468,1.468,0,0,1-.188-0.762,1.3,1.3,0,0,1,.469-1.043,2.088,2.088,0,0,1,1.375-.395,7.138,7.138,0,0,1,2.719.641l0.594-1.523a8.014,8.014,0,0,0-3.266-.719,4.214,4.214,0,0,0-2.727.82,2.735,2.735,0,0,0-1.015,2.25,3.058,3.058,0,0,0,.64,1.953,5.292,5.292,0,0,0,2.2,1.445,7.3,7.3,0,0,1,2,1.055,1.422,1.422,0,0,1,.484,1.086,1.377,1.377,0,0,1-.527,1.133,2.606,2.606,0,0,1-1.637.422,7.039,7.039,0,0,1-1.637-.211,8.613,8.613,0,0,1-1.66-.578v1.766a7.249,7.249,0,0,0,3.172.6,4.8,4.8,0,0,0,3.039-.867,2.875,2.875,0,0,0,1.1-2.391A3.083,3.083,0,0,0,150.769,31.592Zm10.2-1.969q1.3-1.492,4.289-5.008h-2.125l-3.086,3.648q-0.757.867-1.523,1.8V24.616h-1.867V36.038h1.867V31.764l1.1-.9,3.586,5.172h2.164Z" transform="translate(-30 -20)"/>
  <path class="cls-2" d="M37,20L30,30l7,10H53l7-10L53,20H37Z" transform="translate(-30 -20)"/>
  <path class="cls-3" d="M50,36H48V26H46V24h6v2H50V36Zm-8,0H40V26H38V24h6v2H42V36Z" transform="translate(-30 -20)"/>
</svg>
